<svg version="1.1" xmlns="http://www.w3.org/2000/svg" xmlns:xlink="http://www.w3.org/1999/xlink" width="102" height="79"><defs/><g><path fill="rgb(255,255,255)" stroke="none" paint-order="stroke fill markers" fill-rule="evenodd" d=" M 1.9999465942382812 77.99622476100922 C 1.9999465942382812 77.99622476100922 40.796905517578125 77.99622476100922 40.796905517578125 77.99622476100922 C 40.796905517578125 77.99622476100922 40.796905517578125 20.974148213863373 40.796905517578125 20.974148213863373 C 40.796905517578125 20.974148213863373 1.9999465942382812 20.974148213863373 1.9999465942382812 20.974148213863373 C 1.9999465942382812 20.974148213863373 1.9999465942382812 77.99622476100922 1.9999465942382812 77.99622476100922 Z M 22.21685028076172 75.13796359300613 C 21.184249877929688 75.13796359300613 20.34814453125 74.31024998426437 20.34814453125 73.30265671014786 C 20.34814453125 72.29395031929016 21.184249877929688 71.47247016429901 22.21685028076172 71.47247016429901 C 23.2503662109375 71.47247016429901 24.087730407714844 72.29395031929016 24.087730407714844 73.30265671014786 C 24.090591430664062 74.31024998426437 23.2503662109375 75.13796359300613 22.21685028076172 75.13796359300613 Z M 7.61041259765625 26.469160318374634 C 7.61041259765625 26.469160318374634 35.19055938720703 26.469160318374634 35.19055938720703 26.469160318374634 C 35.19055938720703 26.469160318374634 35.188499450683594 68.5418564081192 35.188499450683594 68.5418564081192 C 35.188499450683594 68.5418564081192 7.61041259765625 68.5418564081192 7.61041259765625 68.5418564081192 C 7.61041259765625 68.5418564081192 7.61041259765625 26.469160318374634 7.61041259765625 26.469160318374634 Z M 21.188369750976562 7.361398339271545 C 21.188369750976562 7.361398339271545 83.36194610595703 7.361398339271545 83.36194610595703 7.361398339271545 C 83.36194610595703 7.361398339271545 83.36194610595703 32.08060443401337 83.36194610595703 32.08060443401337 C 83.36194610595703 32.08060443401337 88.84126281738281 32.08060443401337 88.84126281738281 32.08060443401337 C 88.84126281738281 32.08060443401337 88.84126281738281 1.9961756467819214 88.84126281738281 1.9961756467819214 C 88.84126281738281 1.9961756467819214 15.710197448730469 1.9961756467819214 15.710197448730469 1.9961756467819214 C 15.710197448730469 1.9961756467819214 15.710197448730469 18.53709042072296 15.710197448730469 18.53709042072296 C 15.710197448730469 18.53709042072296 21.188369750976562 18.53709042072296 21.188369750976562 18.53709042072296 C 21.188369750976562 18.53709042072296 21.188369750976562 7.361398339271545 21.188369750976562 7.361398339271545 Z M 43.29743957519531 43.87207269668579 C 43.29743957519531 43.87207269668579 72.1105728149414 43.87207269668579 72.1105728149414 43.87207269668579 C 72.1105728149414 43.87207269668579 72.1105728149414 49.23818588256836 72.1105728149414 49.23818588256836 C 72.1105728149414 49.23818588256836 43.29743957519531 49.23818588256836 43.29743957519531 49.23818588256836 C 43.29743957519531 49.23818588256836 43.29743957519531 43.87207269668579 43.29743957519531 43.87207269668579 Z M 74.94275665283203 34.16235536336899 C 74.94275665283203 34.16235536336899 74.94275665283203 77.10528612136841 74.94275665283203 77.10528612136841 C 74.94275665283203 77.10528612136841 100.99992370605469 77.10528612136841 100.99992370605469 77.10528612136841 C 100.99992370605469 77.10528612136841 100.99992370605469 34.16235536336899 100.99992370605469 34.16235536336899 C 100.99992370605469 34.16235536336899 74.94275665283203 34.16235536336899 74.94275665283203 34.16235536336899 Z M 88.55012512207031 35.94067066907883 C 88.89813995361328 35.94067066907883 89.1789779663086 36.21516525745392 89.1789779663086 36.55733734369278 C 89.1789779663086 36.89483433961868 88.89813995361328 37.17600762844086 88.55012512207031 37.17600762844086 C 88.20222473144531 37.17600762844086 87.91944122314453 36.89483433961868 87.91944122314453 36.55733734369278 C 87.91944122314453 36.213161647319794 88.20222473144531 35.94067066907883 88.55012512207031 35.94067066907883 Z M 84.80241394042969 38.00060451030731 C 84.80241394042969 38.00060451030731 92.29783630371094 38.00060451030731 92.29783630371094 38.00060451030731 C 92.29783630371094 38.00060451030731 92.29783630371094 38.589443266391754 92.29783630371094 38.589443266391754 C 92.29783630371094 38.589443266391754 84.80241394042969 38.589443266391754 84.80241394042969 38.589443266391754 C 84.80241394042969 38.589443266391754 84.80241394042969 38.00060451030731 84.80241394042969 38.00060451030731 Z M 88.30384826660156 75.25150150060654 C 87.47598266601562 75.25150150060654 86.8004379272461 74.58897441625595 86.8004379272461 73.77617657184601 C 86.8004379272461 72.96694070100784 87.47174835205078 72.30485886335373 88.30384826660156 72.30485886335373 C 89.1320571899414 72.30485886335373 89.80748748779297 72.96226561069489 89.80748748779297 73.77617657184601 C 89.80748748779297 74.58897441625595 89.1320571899414 75.25150150060654 88.30384826660156 75.25150150060654 Z M 96.81893920898438 70.19394427537918 C 90.05170440673828 70.23201286792755 82.47880554199219 70.25605618953705 79.12385559082031 70.22867351770401 C 79.12385559082031 70.22867351770401 79.12385559082031 40.70325195789337 79.12385559082031 40.70325195789337 C 79.12385559082031 40.70325195789337 96.81893920898438 40.699022114276886 96.81893920898438 40.699022114276886 C 96.81893920898438 40.699022114276886 96.81893920898438 70.19394427537918 96.81893920898438 70.19394427537918 Z M 51.22727966308594 51.43369734287262 C 51.22727966308594 51.43369734287262 43.29743957519531 51.43369734287262 43.29743957519531 51.43369734287262 C 43.29743957519531 51.43369734287262 43.29743957519531 54.68644708395004 43.29743957519531 54.68644708395004 C 43.29743957519531 54.68644708395004 62.61094665527344 54.68644708395004 62.61094665527344 54.68644708395004 C 62.61094665527344 54.68644708395004 62.61094665527344 56.111459136009216 62.61094665527344 56.111459136009216 C 62.61094665527344 56.111459136009216 43.29743957519531 56.111459136009216 43.29743957519531 56.111459136009216 C 43.29743957519531 56.111459136009216 43.29743957519531 59.051200449466705 43.29743957519531 59.051200449466705 C 43.29743957519531 59.051200449466705 72.1105728149414 59.051200449466705 72.1105728149414 59.051200449466705 C 72.1105728149414 59.051200449466705 72.1105728149414 51.43369734287262 72.1105728149414 51.43369734287262 C 72.1105728149414 51.43369734287262 53.31273651123047 51.43369734287262 53.31273651123047 51.43369734287262 C 53.31273651123047 51.43369734287262 51.22727966308594 51.43369734287262 51.22727966308594 51.43369734287262 Z"/></g></svg>