<svg version="1.1" xmlns="http://www.w3.org/2000/svg" xmlns:xlink="http://www.w3.org/1999/xlink" width="61" height="100"><defs/><g><path fill="rgb(24,207,171)" stroke="none" paint-order="stroke fill markers" fill-rule="evenodd" d=" M 18.418365478515625 96.83080971240997 C 18.418365478515625 98.0205088853836 19.38287353515625 98.99604439735413 20.561729431152344 98.99604439735413 C 20.561729431152344 98.99604439735413 52.240806579589844 98.99604439735413 52.240806579589844 98.99604439735413 C 53.41966247558594 98.99604439735413 54.384056091308594 98.0205088853836 54.384056091308594 96.83080971240997 C 54.384056091308594 96.83080971240997 54.384056091308594 91.8663090467453 54.384056091308594 91.8663090467453 C 54.384056091308594 91.8663090467453 18.418365478515625 91.8663090467453 18.418365478515625 91.8663090467453 C 18.418365478515625 91.8663090467453 18.418365478515625 96.83080971240997 18.418365478515625 96.83080971240997 Z M 17.70013427734375 36.97585105895996 C 17.70013427734375 36.97585105895996 17.71100616455078 21.127740144729614 17.71100616455078 21.127740144729614 C 17.71100616455078 19.29733097553253 18.3968505859375 17.58513480424881 19.650779724121094 16.306386291980743 C 21.043869018554688 14.899851977825165 23.037200927734375 14.096626937389374 25.137649536132812 14.096626937389374 C 26.777359008789062 14.096626937389374 28.352867126464844 14.607102274894714 29.57452392578125 15.51585078239441 C 31.053558349609375 16.62162095308304 31.97503662109375 18.290405571460724 32.16809844970703 20.195838809013367 C 32.16809844970703 20.23880511522293 33.014503479003906 28.50481003522873 33.775421142578125 35.90369701385498 C 39.10173034667969 32.73999661207199 42.69208526611328 26.89145863056183 42.69208526611328 20.195838809013367 C 42.69208526611328 10.143058896064758 34.63269805908203 1.9959348440170288 24.687667846679688 1.9959348440170288 C 14.742523193359375 1.9959348440170288 6.683135986328125 10.143058896064758 6.683135986328125 20.195838809013367 C 6.672607421875 27.73497849702835 11.216598510742188 34.21287268400192 17.70013427734375 36.97585105895996 Z M 59.999900817871094 57.65622437000275 C 59.999900817871094 55.54330617189407 58.660255432128906 53.66926282644272 56.66680908203125 53.02053838968277 C 50.719085693359375 51.058336198329926 38.71595001220703 47.148847579956055 36.88340759277344 46.77951544523239 C 36.3155517578125 46.672433614730835 35.758338928222656 46.61878138780594 35.22218322753906 46.61878138780594 C 33.775421142578125 46.61878138780594 32.510963439941406 47.01816767454147 31.74993133544922 47.70184397697449 C 31.74993133544922 47.70184397697449 31.739402770996094 47.70184397697449 31.739402770996094 47.70184397697449 C 31.739402770996094 47.70184397697449 31.739402770996094 47.70184397697449 31.739402770996094 47.68937706947327 C 31.728759765625 47.60388970375061 28.9638671875 20.576302111148834 28.9638671875 20.532445311546326 C 28.7386474609375 18.364316523075104 26.959548950195312 17.33668714761734 25.12700653076172 17.33668714761734 C 23.04784393310547 17.33668714761734 20.90447998046875 18.657511472702026 20.91546630859375 21.115718483924866 C 20.91546630859375 21.115718483924866 20.893836975097656 64.91441339254379 20.893836975097656 64.91441339254379 C 20.893836975097656 65.43446153402328 20.518699645996094 65.86857706308365 20.00440216064453 65.9429332613945 C 19.9935302734375 65.9429332613945 19.9935302734375 65.9429332613945 19.982887268066406 65.9429332613945 C 19.940200805664062 65.95540016889572 19.886642456054688 65.95540016889572 19.84349822998047 65.95540016889572 C 19.832969665527344 65.95540016889572 19.82232666015625 65.95540016889572 19.81134033203125 65.95540016889572 C 18.354049682617188 65.91132074594498 15.063987731933594 65.86857706308365 11.859642028808594 61.17678999900818 C 11.430831909179688 60.559678077697754 11.045051574707031 59.997331500053406 10.691429138183594 59.47572499513626 C 9.576889038085938 57.86237359046936 8.08709716796875 57.17046022415161 6.683135986328125 57.17046022415161 C 4.218421936035156 57.17046022415161 1.9999847412109375 59.32456374168396 2.535797119140625 62.543029487133026 C 3.307586669921875 67.23414868116379 8.387161254882812 78.16339671611786 18.3968505859375 88.41275304555893 C 18.3968505859375 88.41275304555893 54.362770080566406 88.41275304555893 54.362770080566406 88.41275304555893 C 54.362770080566406 88.41275304555893 57.995582580566406 82.20467835664749 57.995582580566406 82.20467835664749 C 59.29231262207031 80.00560492277145 59.97850036621094 77.49307781457901 59.97850036621094 74.92511749267578 C 59.97850036621094 74.92511749267578 59.999900817871094 57.65622437000275 59.999900817871094 57.65622437000275 Z"/></g></svg>