<svg version="1.1" xmlns="http://www.w3.org/2000/svg" xmlns:xlink="http://www.w3.org/1999/xlink" width="96" height="78"><defs/><g><path fill="rgb(255,255,255)" stroke="none" paint-order="stroke fill markers" fill-rule="evenodd" d=" M 76.29437255859375 1.9961997270584106 C 76.29437255859375 1.9961997270584106 64.04999542236328 20.41538769006729 64.04999542236328 20.41538769006729 C 64.04999542236328 20.41538769006729 51.395347595214844 1.9961997270584106 51.395347595214844 1.9961997270584106 C 51.395347595214844 1.9961997270584106 76.29437255859375 1.9961997270584106 76.29437255859375 1.9961997270584106 Z M 62.105873107910156 24.626530945301056 C 62.105873107910156 24.626530945301056 34.943092346191406 24.626530945301056 34.943092346191406 24.626530945301056 C 34.943092346191406 24.626530945301056 48.52265167236328 76.02647745609283 48.52265167236328 76.02647745609283 C 48.52265167236328 76.02647745609283 62.105873107910156 24.626530945301056 62.105873107910156 24.626530945301056 Z M 35.84992218017578 21.60820358991623 C 35.84992218017578 21.60820358991623 61.19721221923828 21.60820358991623 61.19721221923828 21.60820358991623 C 61.19721221923828 21.60820358991623 48.52265167236328 3.1600745916366577 48.52265167236328 3.1600745916366577 C 48.52265167236328 3.1600745916366577 35.84992218017578 21.60820358991623 35.84992218017578 21.60820358991623 Z M 32.997596740722656 20.41538769006729 C 32.997596740722656 20.41538769006729 45.651100158691406 1.9961997270584106 45.651100158691406 1.9961997270584106 C 45.651100158691406 1.9961997270584106 20.75402069091797 1.9961997270584106 20.75402069091797 1.9961997270584106 C 20.75402069091797 1.9961997270584106 32.997596740722656 20.41538769006729 32.997596740722656 20.41538769006729 Z M 45.64503479003906 76.99622476100922 C 45.64503479003906 76.99622476100922 31.80901336669922 24.626530945301056 31.80901336669922 24.626530945301056 C 31.80901336669922 24.626530945301056 1.9999008178710938 24.626530945301056 1.9999008178710938 24.626530945301056 C 1.9999008178710938 24.626530945301056 45.64503479003906 76.99622476100922 45.64503479003906 76.99622476100922 Z M 2.0424728393554688 21.60820358991623 C 2.0424728393554688 21.60820358991623 30.156829833984375 21.60820358991623 30.156829833984375 21.60820358991623 C 30.156829833984375 21.60820358991623 17.909820556640625 3.1856762766838074 17.909820556640625 3.1856762766838074 C 17.909820556640625 3.1856762766838074 2.0424728393554688 21.60820358991623 2.0424728393554688 21.60820358991623 Z M 79.11648559570312 3.2208507657051086 C 79.11648559570312 3.2208507657051086 66.89236450195312 21.60820358991623 66.89236450195312 21.60820358991623 C 66.89236450195312 21.60820358991623 94.95728302001953 21.60820358991623 94.95728302001953 21.60820358991623 C 94.95728302001953 21.60820358991623 79.11648559570312 3.2208507657051086 79.11648559570312 3.2208507657051086 Z M 65.23857879638672 24.626530945301056 C 65.23857879638672 24.626530945301056 51.400726318359375 76.99088180065155 51.400726318359375 76.99088180065155 C 51.400726318359375 76.99088180065155 94.99996948242188 24.626530945301056 94.99996948242188 24.626530945301056 C 94.99996948242188 24.626530945301056 65.23857879638672 24.626530945301056 65.23857879638672 24.626530945301056 Z"/></g></svg>