<svg version="1.1" xmlns="http://www.w3.org/2000/svg" xmlns:xlink="http://www.w3.org/1999/xlink" width="62" height="99"><defs/><g><path fill="rgb(24,207,171)" stroke="none" paint-order="stroke fill markers" fill-rule="evenodd" d=" M 48.99995422363281 76.99729561805725 C 48.99995422363281 78.65450382232666 47.65813446044922 79.99580949544907 46 79.99580949544907 C 46 79.99580949544907 16 79.99580949544907 16 79.99580949544907 C 14.341751098632812 79.99580949544907 12.999931335449219 78.65450382232666 12.999931335449219 76.99729561805725 C 12.999931335449219 75.33852905035019 14.341751098632812 73.99655550718307 16 73.99655550718307 C 16 73.99655550718307 46 73.99655550718307 46 73.99655550718307 C 47.65813446044922 73.99655550718307 48.99995422363281 75.33852905035019 48.99995422363281 76.99729561805725 Z M 46 82.99654960632324 C 46 82.99654960632324 16 82.99654960632324 16 82.99654960632324 C 14.341751098632812 82.99654960632324 12.999931335449219 84.33741003274918 12.999931335449219 85.99662184715271 C 12.999931335449219 87.65583366155624 14.341751098632812 88.99580359458923 16 88.99580359458923 C 16 88.99580359458923 46 88.99580359458923 46 88.99580359458923 C 47.65813446044922 88.99580359458923 48.99995422363281 87.65583366155624 48.99995422363281 85.99662184715271 C 48.99995422363281 84.33741003274918 47.65813446044922 82.99654960632324 46 82.99654960632324 Z M 24.999977111816406 97.99602031707764 C 24.999977111816406 97.99602031707764 36.999908447265625 97.99602031707764 36.999908447265625 97.99602031707764 C 40.31640625 97.99602031707764 42.99993133544922 95.31274110078812 42.99993133544922 91.99632108211517 C 42.99993133544922 91.99632108211517 18.999954223632812 91.99632108211517 18.999954223632812 91.99632108211517 C 18.999954223632812 95.31274110078812 21.68359375 97.99602031707764 24.999977111816406 97.99602031707764 Z M 61 31.995989382267 C 61 48.30826997756958 51.16792297363281 50.20657926797867 49.32221984863281 67.99596577882767 C 49.32221984863281 69.65473234653473 47.98040008544922 70.99670588970184 46.322265625 70.99670588970184 C 46.322265625 70.99670588970184 15.677734375 70.99670588970184 15.677734375 70.99670588970184 C 14.019371032714844 70.99670588970184 12.677665710449219 69.65473234653473 12.677665710449219 67.99596577882767 C 12.677665710449219 67.99596577882767 12.671829223632812 67.99596577882767 12.671829223632812 67.99596577882767 C 10.832077026367188 50.20657926797867 1 48.30826997756958 1 31.995989382267 C 1 15.42657881975174 14.429641723632812 1.9959348440170288 31 1.9959348440170288 C 47.57024383544922 1.9959348440170288 61 15.42657881975174 61 31.995989382267 Z M 43.14641571044922 22.99666315317154 C 8.271461486816406 31.24597132205963 25.146461486816406 52.996940314769745 25.146461486816406 52.996940314769745 C 25.146461486816406 40.99576085805893 33.958984375 38.18336009979248 34.14643859863281 38.55914831161499 C 27.958961486816406 44.559292793273926 25.146461486816406 64.99633878469467 25.146461486816406 64.99633878469467 C 25.146461486816406 64.99633878469467 31.146484375 64.99633878469467 31.146484375 64.99633878469467 C 31.146484375 64.99633878469467 31.146484375 58.995749056339264 31.146484375 52.996940314769745 C 48.20893859863281 53.933739364147186 43.14641571044922 25.05793273448944 43.14641571044922 22.99666315317154 Z"/></g></svg>